<svg id="Слой_1" data-name="Слой 1" xmlns="http://www.w3.org/2000/svg" viewBox="0 0 168.77 45.02"><defs><style>.cls-1{fill:#fff;}</style></defs><title>hotello_logowhite</title><path class="cls-1" d="M37.35,36.4l-3.77,2.17V17.33H26.64V29.89H13.84V17.33H6.9v21L3.62,36.42A7.28,7.28,0,0,1,0,30.13V14.89A7.28,7.28,0,0,1,3.63,8.58L16.85,1a7.29,7.29,0,0,1,7.29,0L37.36,8.6A7.28,7.28,0,0,1,41,14.89V30.11A7.28,7.28,0,0,1,37.35,36.4ZM22,8.65l-1.9-3.37-1.9,3.37-3.85.73,2.68,2.81L16.58,16l3.55-1.63L23.68,16l-.48-3.82,2.68-2.81Zm4.61,33.93L24.13,44a7.29,7.29,0,0,1-7.29,0l-3-1.73v-6h12.8v6.26Z" transform="translate(0.01 0.02)"/><path id="hotello" class="cls-1" d="M64.58,16.23a7.32,7.32,0,0,0-4,1.07,6,6,0,0,0-2.46,3V10.2H53.39V35.27h4.78v-10a5.39,5.39,0,0,1,1.22-3.8,4.22,4.22,0,0,1,3.26-1.32,4.11,4.11,0,0,1,3.15,1.24A4.9,4.9,0,0,1,67,24.9V35.27h4.75V24.36a8.61,8.61,0,0,0-1.93-6,6.66,6.66,0,0,0-5.19-2.13h0Zm20,0a10.44,10.44,0,0,0-4.94,1.15,8.44,8.44,0,0,0-3.44,3.34A10.12,10.12,0,0,0,75,25.88,10,10,0,0,0,76.22,31a8.58,8.58,0,0,0,3.44,3.34,11,11,0,0,0,9.87,0A8.58,8.58,0,0,0,93,31a10,10,0,0,0,1.25-5.12A10.13,10.13,0,0,0,93,20.75a8.44,8.44,0,0,0-3.44-3.34,10.44,10.44,0,0,0-4.94-1.15Zm0,4.13A4.6,4.6,0,0,1,88,21.8a5.57,5.57,0,0,1,1.39,4.08A5.56,5.56,0,0,1,88,30a4.8,4.8,0,0,1-6.79,0,5.56,5.56,0,0,1-1.39-4.08,5.56,5.56,0,0,1,1.39-4.08,4.59,4.59,0,0,1,3.39-1.41Zm21.21,10.77a2.53,2.53,0,0,1-1.83-.54,2.64,2.64,0,0,1-.54-1.9v-8.2h4.21v-4h-4.21V11.85H98.65V16.5H96v4h2.61v8.13q0,3.56,1.68,5.08a7,7,0,0,0,4.83,1.53h2.51v-4.1h-1.87Zm23-6a9.18,9.18,0,0,0-1.14-4.59,8.13,8.13,0,0,0-3.22-3.17,9.92,9.92,0,0,0-4.87-1.15,10.14,10.14,0,0,0-4.89,1.15,8.09,8.09,0,0,0-3.33,3.34,10.59,10.59,0,0,0-1.19,5.13A10.49,10.49,0,0,0,111.34,31a8.23,8.23,0,0,0,3.33,3.34,10.77,10.77,0,0,0,9.14.29,8.33,8.33,0,0,0,3.14-2.44,8.09,8.09,0,0,0,1.6-3.52h-5.06a3.6,3.6,0,0,1-1.41,2.2,4.54,4.54,0,0,1-2.77.81,4.37,4.37,0,0,1-3.12-1.19,5.16,5.16,0,0,1-1.36-3.69h13.77a9,9,0,0,0,.17-1.63h0ZM124,24.69h-9.13a4.85,4.85,0,0,1,1.46-3.49A4.71,4.71,0,0,1,119.55,20a4.6,4.6,0,0,1,3.21,1.19,4.21,4.21,0,0,1,1.2,3.49h0Zm8.21-14.5V35.27H137V10.2h-4.78Zm9.13,0V35.27h4.79V10.2H141.3Zm17.81,6.06a10.44,10.44,0,0,0-4.94,1.15,8.44,8.44,0,0,0-3.44,3.34,10.12,10.12,0,0,0-1.26,5.13A10,10,0,0,0,150.73,31a8.58,8.58,0,0,0,3.44,3.34,11,11,0,0,0,9.87,0A8.58,8.58,0,0,0,167.5,31a10,10,0,0,0,1.26-5.12,10.13,10.13,0,0,0-1.26-5.13,8.44,8.44,0,0,0-3.44-3.34,10.44,10.44,0,0,0-4.94-1.15h0Zm0,4.13a4.59,4.59,0,0,1,3.39,1.41,5.56,5.56,0,0,1,1.39,4.08A5.56,5.56,0,0,1,162.51,30a4.8,4.8,0,0,1-6.79,0,5.56,5.56,0,0,1-1.39-4.08,5.56,5.56,0,0,1,1.39-4.08,4.59,4.59,0,0,1,3.39-1.41h0Z" transform="translate(0.01 0.02)"/></svg>